<svg width="35" height="35" viewBox="0 0 35 35" fill="none" xmlns="http://www.w3.org/2000/svg">
<g id="layer1">
<g id="g2302">
<g id="Clip path group">
<g id="g2304">
<g id="g2310">
<path id="path2312" d="M12.3266 34.3027C5.70058 34.3027 0.309509 28.9116 0.309509 22.2856C0.309509 15.6593 5.70058 10.2686 12.3266 10.2686C14.3523 10.2686 16.3543 10.7836 18.1225 11.7588C18.1461 11.7687 18.1694 11.7796 18.1923 11.7919C18.4382 11.9273 18.6179 11.9822 18.8129 11.9822C19.4232 11.9822 19.9194 11.4857 19.9194 10.8757C19.9194 10.74 19.8936 10.6043 19.8426 10.4734C19.8361 10.4574 19.8306 10.4406 19.8256 10.4239C19.4807 9.53781 19.3061 8.6059 19.3061 7.65325C19.3061 3.43307 22.7392 4.19617e-05 26.9593 4.19617e-05C31.1791 4.19617e-05 34.6125 3.43307 34.6125 7.65325C34.6125 11.8734 31.1791 15.3065 26.9593 15.3065C26.0314 15.3065 25.1202 15.1391 24.2505 14.8092C24.2021 14.7936 24.1559 14.7776 24.1101 14.7616C23.9581 14.7088 23.874 14.6797 23.7064 14.6768H23.6874C23.0938 14.6768 22.6111 15.1733 22.6111 15.7841C22.6111 15.995 22.6737 16.1893 22.8199 16.4341C22.8239 16.4403 22.8272 16.4461 22.8308 16.4526C23.8206 18.231 24.344 20.2479 24.344 22.2856C24.344 28.9116 18.9526 34.3027 12.3266 34.3027Z" fill="#131313"/>
</g>
<g id="g2314">
<path id="path2316" d="M12.3266 11.6242C6.44775 11.6242 1.66486 16.4067 1.66486 22.2856C1.66486 28.1644 6.44775 32.9473 12.3266 32.9473C18.2055 32.9473 22.9884 28.1644 22.9884 22.2856C22.9884 20.4814 22.526 18.6958 21.6516 17.1208C21.3817 16.6672 21.2555 16.2419 21.2555 15.784C21.2555 14.4261 22.3467 13.3214 23.6875 13.3214L23.7304 13.3218C24.1141 13.3283 24.3586 13.4131 24.5546 13.4811C24.5939 13.4949 24.6343 13.5088 24.6772 13.5226C24.6903 13.5266 24.7034 13.531 24.7161 13.536C25.4364 13.8114 26.1911 13.9511 26.9594 13.9511C30.432 13.9511 33.2569 11.1259 33.2569 7.65319C33.2569 4.18051 30.432 1.35566 26.9594 1.35566C23.4867 1.35566 20.6618 4.18051 20.6618 7.65319C20.6618 8.45234 20.811 9.23366 21.1056 9.9757C21.114 9.9968 21.1212 10.0179 21.1274 10.0394C21.2253 10.3104 21.2751 10.5912 21.2751 10.8756C21.2751 12.2331 20.1704 13.3378 18.8129 13.3378C18.407 13.3378 18.0349 13.2396 17.6158 13.021C17.5871 13.0097 17.5587 12.9966 17.5311 12.981C15.9477 12.0934 14.1479 11.6242 12.3266 11.6242Z" fill="#F2C94C"/>
</g>
<g id="g2318">
<path id="path2320" d="M8.5465 14.538V15.9046C8.58651 15.9072 8.62034 15.9083 8.64944 15.9083C8.77748 15.9083 8.8666 15.8766 8.91643 15.8137C8.9659 15.7504 8.991 15.6195 8.991 15.4205V14.9793C8.991 14.7956 8.96226 14.6763 8.90479 14.621C8.84732 14.5657 8.72801 14.538 8.5465 14.538ZM7.14972 13.6192H8.55632C8.9368 13.6192 9.22925 13.6491 9.43404 13.7087C9.63847 13.7684 9.79233 13.8546 9.89491 13.9673C9.99785 14.0805 10.0673 14.2169 10.1041 14.3773C10.1404 14.5377 10.1586 14.7858 10.1586 15.1219V15.5896C10.1586 15.9323 10.1233 16.1825 10.0528 16.3393C9.98184 16.4965 9.85198 16.6169 9.66284 16.7009C9.47369 16.7853 9.22634 16.8271 8.92152 16.8271H8.5465V18.9899H7.14972V13.6192Z" fill="#131313"/>
</g>
<g id="g2322">
<path id="path2324" d="M11.9569 14.538V15.7322C12.1137 15.7322 12.2239 15.7108 12.2868 15.6675C12.3501 15.6246 12.3814 15.4845 12.3814 15.2481V14.9527C12.3814 14.7825 12.3512 14.6708 12.2905 14.6177C12.2293 14.5646 12.1184 14.538 11.9569 14.538ZM10.5601 13.6192H11.5488C12.2079 13.6192 12.6542 13.6447 12.8874 13.6956C13.1209 13.7462 13.3108 13.876 13.4581 14.0852C13.605 14.2943 13.6785 14.6275 13.6785 15.0855C13.6785 15.5034 13.6265 15.7842 13.5228 15.9279C13.4188 16.072 13.214 16.1582 12.9088 16.1869C13.1853 16.2553 13.3711 16.3473 13.4664 16.4623C13.5614 16.5772 13.6207 16.6827 13.644 16.7787C13.6672 16.8751 13.6785 17.1399 13.6785 17.5735V18.9899H12.3814V17.2054C12.3814 16.9177 12.3588 16.7398 12.3137 16.6711C12.2683 16.6027 12.1493 16.5681 11.9569 16.5681V18.9899H10.5601V13.6192Z" fill="#131313"/>
</g>
<g id="g2326">
<path id="path2328" d="M16.014 14.9991C16.014 14.7492 16.0002 14.5896 15.9725 14.5197C15.9449 14.4502 15.8881 14.4153 15.8019 14.4153C15.7288 14.4153 15.6728 14.4437 15.6342 14.5001C15.5957 14.5561 15.576 14.7227 15.576 14.9991V17.5072C15.576 17.8189 15.5888 18.0113 15.6142 18.0841C15.6397 18.1572 15.699 18.1939 15.7917 18.1939C15.887 18.1939 15.9478 18.1521 15.974 18.068C16.0009 17.9837 16.014 17.7836 16.014 17.4671V14.9991ZM17.4104 16.764C17.4104 17.3038 17.3977 17.6858 17.3726 17.9102C17.3471 18.135 17.2675 18.3398 17.1336 18.5256C16.9997 18.7112 16.8193 18.8541 16.5913 18.9534C16.3632 19.0531 16.098 19.1029 15.795 19.1029C15.5077 19.1029 15.2494 19.056 15.0206 18.9618C14.7914 18.8679 14.6074 18.7268 14.4681 18.5387C14.3288 18.3507 14.2458 18.1463 14.2193 17.9251C14.1927 17.7039 14.1793 17.3169 14.1793 16.764V15.8452C14.1793 15.3054 14.1924 14.9235 14.2175 14.6987C14.2433 14.4742 14.3226 14.2691 14.4564 14.0836C14.5903 13.8977 14.7711 13.7551 14.9988 13.6555C15.2265 13.5561 15.492 13.5063 15.795 13.5063C16.0827 13.5063 16.3406 13.5532 16.5698 13.6471C16.7986 13.7413 16.9826 13.8824 17.122 14.0701C17.2613 14.2585 17.3442 14.463 17.3708 14.6841C17.3973 14.9053 17.4104 15.2919 17.4104 15.8452V16.764Z" fill="#131313"/>
</g>
<g id="g2330">
<path id="path2332" d="M6.08447 19.3397V22.9291C6.08447 23.4667 6.07901 23.8123 6.06774 23.9658C6.05646 24.1196 6.00627 24.2582 5.91642 24.3823C5.82621 24.5059 5.70472 24.5918 5.55122 24.6391C5.39735 24.6871 5.16565 24.7107 4.85647 24.7107H4.15698V23.7719C4.24101 23.7784 4.30175 23.7817 4.33958 23.7817C4.43889 23.7817 4.51745 23.7573 4.57493 23.709C4.63276 23.6602 4.6655 23.6006 4.67459 23.5296C4.68332 23.4587 4.68769 23.3216 4.68769 23.1186V19.3397H6.08447Z" fill="#131313"/>
</g>
<g id="g2334">
<path id="path2336" d="M9.80006 19.3397V22.9291C9.80006 23.3361 9.7866 23.622 9.76005 23.7868C9.7335 23.9516 9.65493 24.1207 9.52471 24.2942C9.39412 24.4681 9.22207 24.5994 9.00892 24.6893C8.7954 24.7787 8.54369 24.8235 8.25378 24.8235C7.93332 24.8235 7.65033 24.7704 7.4048 24.6642C7.15927 24.558 6.97558 24.4197 6.85409 24.2495C6.73223 24.0793 6.66057 23.8996 6.63839 23.7104C6.6162 23.5216 6.60529 23.1237 6.60529 22.5181V19.3397H8.00171V23.367C8.00171 23.6017 8.0148 23.7515 8.04026 23.8166C8.06536 23.8817 8.11701 23.9145 8.19413 23.9145C8.28288 23.9145 8.33962 23.8785 8.36509 23.8065C8.39055 23.7348 8.40364 23.5649 8.40364 23.2976V19.3397H9.80006Z" fill="#131313"/>
</g>
<g id="g2338">
<path id="path2340" d="M13.6614 19.3397L12.9506 24.7107H10.8292L10.0221 19.3397H11.4949C11.6662 20.819 11.7884 22.071 11.8616 23.095C11.9339 22.0601 12.0103 21.1413 12.0914 20.3385L12.1886 19.3397H13.6614Z" fill="#131313"/>
</g>
<g id="g2342">
<path id="path2344" d="M13.8967 19.3397H16.2258V20.4145H15.2935V21.433H16.1661V22.4548H15.2935V23.6355H16.3185V24.7107H13.8967V19.3397Z" fill="#131313"/>
</g>
<g id="g2346">
<path id="path2348" d="M19.8385 19.3397V24.7107H18.6145L17.8877 22.2689V24.7107H16.7201V19.3397H17.8877L18.6705 21.7582V19.3397H19.8385Z" fill="#131313"/>
</g>
<g id="g2350">
<path id="path2352" d="M8.92676 25.0604V26.135H8.09742V30.4312H6.70064V26.135H5.87457V25.0604H8.92676Z" fill="#131313"/>
</g>
<g id="g2354">
<path id="path2356" d="M12.4444 25.0605V28.6499C12.4444 29.0569 12.4309 29.3425 12.4047 29.5072C12.3778 29.672 12.2996 29.8415 12.169 30.015C12.0388 30.1885 11.8667 30.3202 11.6532 30.4097C11.4397 30.4992 11.188 30.5439 10.8984 30.5439C10.5776 30.5439 10.2946 30.4912 10.0491 30.385C9.80356 30.2787 9.62023 30.1405 9.49837 29.9703C9.37652 29.8001 9.30486 29.62 9.28267 29.4312C9.26085 29.2421 9.24957 28.8445 9.24957 28.2385V25.0605H10.6464V29.0878C10.6464 29.3221 10.6591 29.472 10.6845 29.5371C10.7096 29.6025 10.7613 29.6349 10.8388 29.6349C10.9272 29.6349 10.9843 29.5993 11.0094 29.5272C11.0352 29.4552 11.0479 29.2857 11.0479 29.018V25.0605H12.4444Z" fill="#131313"/>
</g>
<g id="g2358">
<path id="path2360" d="M15.7983 25.0604V26.135H14.969V30.4312H13.5726V26.135H12.7462V25.0604H15.7983Z" fill="#131313"/>
</g>
<g id="g2362">
<path id="path2364" d="M16.1166 25.0604H18.4457V26.135H17.5134V27.1534H18.386V28.1752H17.5134V29.3563H18.5385V30.4312H16.1166V25.0604Z" fill="#131313"/>
</g>
</g>
</g>
</g>
</g>
</svg>
